<svg width="401" height="142" viewBox="0 0 401 142" fill="none" xmlns="http://www.w3.org/2000/svg">
<path d="M373.303 90.9996V107.5H400.003V87.7996C400.003 81.3996 399.303 75.4996 398.003 70.2996C396.803 65.0996 394.703 60.4996 391.603 56.6996C388.603 52.8996 384.603 49.9996 379.403 47.8996C374.403 45.7996 368.103 44.6996 360.403 44.6996C357.803 44.6996 355.003 44.9996 352.203 45.5996C349.503 46.0996 347.203 46.5996 345.403 47.1996V2.09961L318.703 6.3996V140.9H345.403V69.2996C347.103 68.7996 348.903 68.3996 350.903 67.9996C353.003 67.4996 355.303 67.2996 357.703 67.2996C363.703 67.2996 367.703 69.0996 369.903 72.6996C372.203 76.2996 373.303 82.3996 373.303 90.9996Z" fill="#FFFDE8"/>
<path d="M400 141L373 138.566V115H400V141Z" fill="#FDAE40"/>
<path fill-rule="evenodd" clip-rule="evenodd" d="M309.497 93.1004C300.997 101.2 289.597 106.1 276.897 106.1C250.897 106.1 229.797 85.0004 229.797 59.0004C229.797 33.0004 250.897 11.9004 276.897 11.9004C289.697 11.9004 301.297 17.0004 309.797 25.3004L292.797 42.3004C288.597 38.4004 282.997 36.0004 276.697 36.0004C263.697 36.0004 253.197 46.5004 253.197 59.5004C253.197 72.5004 263.697 83.0004 276.697 83.0004C282.997 83.0004 288.597 80.6004 292.897 76.6004L309.497 93.1004Z" fill="#FDAE40"/>
<path fill-rule="evenodd" clip-rule="evenodd" d="M309.497 127.4C300.997 135.5 289.597 140.4 276.897 140.4C250.897 140.4 229.797 119.3 229.797 93.3004C229.797 67.3004 250.897 46.2004 276.897 46.2004C289.697 46.2004 301.297 51.3004 309.797 59.6004L292.897 76.6004C288.697 72.7004 282.997 70.3004 276.697 70.3004C263.697 70.3004 253.197 80.8004 253.197 93.8004C253.197 106.8 263.697 117.3 276.697 117.3C282.997 117.3 288.597 114.9 292.897 110.9L309.497 127.4Z" fill="#FF5D46"/>
<path d="M220.402 115.5C217.902 116.5 215.102 117.2 212.002 117.8C209.002 118.3 206.102 118.5 203.202 118.5C197.202 118.5 193.202 116.8 191.202 113.5C189.302 110.2 188.302 105.7 188.302 100.1V66.9996H220.302V44.7996H188.302V17.0996L161.602 21.3996V100.5C161.602 106.6 162.102 112.1 163.202 117.1C164.402 122.1 166.402 126.4 169.302 130C172.202 133.5 176.002 136.2 180.802 138.2C185.602 140.1 191.602 141.1 198.902 141.1C204.602 141.1 209.502 140.6 213.402 139.7C217.302 138.7 220.902 137.6 224.102 136.3L220.402 115.5Z" fill="#FFFDE8"/>
<path d="M108.702 42.3008C103.002 42.3008 97.4016 43.4008 91.9016 45.5008C86.5016 47.6008 81.8016 50.8008 77.6016 55.0008C73.4016 59.2008 70.0016 64.4008 67.4016 70.7008C64.9016 76.9008 63.6016 84.2008 63.6016 92.5008C63.6016 99.4008 64.6016 105.901 66.5016 111.801C68.5016 117.801 71.6016 123.001 75.6016 127.401C79.8016 131.701 85.0016 135.101 91.2016 137.601C97.5016 140.101 104.902 141.401 113.402 141.401C116.702 141.401 120.102 141.201 123.402 140.901C126.702 140.501 129.802 140.101 132.702 139.501C135.702 139.001 138.402 138.401 140.802 137.701C143.202 137.001 145.102 136.301 146.502 135.601L142.902 113.901C139.902 115.201 136.002 116.301 131.302 117.301C126.602 118.101 121.902 118.601 117.002 118.601C109.402 118.601 103.302 117.001 98.7016 113.801C94.2016 110.601 91.6016 106.201 91.0016 100.701H151.502C151.602 99.3008 151.702 97.7008 151.902 95.9008C152.002 94.0008 152.102 92.3008 152.102 90.7008C152.102 74.8008 148.202 62.8008 140.502 54.7008C132.602 46.4008 122.102 42.3008 108.702 42.3008ZM91.0016 82.4008C91.4016 80.1008 91.9016 77.9008 92.6016 75.8008C93.4016 73.5008 94.6016 71.6008 96.0016 69.9008C97.4016 68.2008 99.2016 66.9008 101.402 66.0008C103.502 64.9008 106.102 64.4008 109.102 64.4008C112.202 64.4008 114.802 64.9008 116.802 66.0008C118.902 67.1008 120.702 68.4008 122.002 70.1008C123.402 71.8008 124.402 73.7008 125.002 75.8008C125.702 77.9008 126.102 80.2008 126.302 82.4008H91.0016Z" fill="#FFFDE8"/>
<path d="M27.4 33.1C28 31 28.9 29.1 30.1 27.6C31.4 26 33.1 24.9 35.3 24C37.6 23 40.3 22.6 43.5 22.6C45.9 22.6 48.5 22.9 51.2 23.5C54.1 24 56.7 24.8 59.1 25.8L64.3 4.5C62 3.5 58.8 2.60001 54.6 1.60001C50.4 0.500006 45.8 0 40.8 0C27.3 0 17.1 3.59998 10.2 10.7C3.4 17.9 0 27.5 0 39.7V106.5H26.7V66.9H59.6V44.7H26.7V40C26.7 37.6 26.9 35.3 27.4 33.1Z" fill="#FFFDE8"/>
<path d="M0 141.1L26.7 138.6V114.5H0V141.1Z" fill="#FF5D46"/>
</svg>
