<?xml version="1.0" standalone="no"?>
<!DOCTYPE svg PUBLIC "-//W3C//DTD SVG 20010904//EN"
 "http://www.w3.org/TR/2001/REC-SVG-20010904/DTD/svg10.dtd">
<svg version="1.0" xmlns="http://www.w3.org/2000/svg"
 width="700.000000pt" height="700.000000pt" viewBox="0 0 700.000000 700.000000"
 preserveAspectRatio="xMidYMid meet">
<metadata>
Created by potrace 1.14, written by Peter Selinger 2001-2017
</metadata>
<g transform="translate(0.000000,700.000000) scale(0.100000,-0.100000)"
fill="#000000" stroke="none">
<path d="M3310 6117 c-3 -3 -41 -7 -85 -11 -85 -7 -134 -13 -175 -22 -14 -3
-38 -8 -55 -11 -103 -16 -393 -99 -478 -137 -18 -8 -74 -33 -124 -55 -180 -79
-368 -194 -538 -326 -105 -82 -101 -79 -233 -208 l-97 -95 -90 -5 c-160 -10
-284 -66 -395 -177 -277 -278 -190 -759 168 -927 216 -101 465 -66 639 91 167
152 230 378 168 606 -17 64 -17 64 32 110 167 157 339 278 527 370 237 116
473 185 716 208 131 12 422 5 500 -12 14 -3 43 -8 64 -11 50 -7 69 -11 199
-47 203 -55 412 -151 592 -271 50 -33 92 -63 95 -66 3 -3 28 -24 55 -46 226
-180 416 -418 548 -685 63 -128 69 -141 106 -244 28 -75 76 -270 91 -366 15
-92 46 -155 99 -203 60 -54 104 -70 196 -71 71 -1 86 2 134 29 119 66 171 181
148 330 -58 377 -204 759 -408 1062 -185 276 -384 482 -674 701 -55 42 -205
133 -306 186 -243 127 -546 230 -794 270 -74 11 -113 17 -150 22 -53 7 -469
16 -475 11z"/>
<path d="M3355 4658 c-315 -37 -611 -215 -808 -485 -67 -92 -148 -263 -173
-368 -1 -5 -8 -32 -14 -60 -36 -151 -31 -379 12 -540 78 -290 254 -530 504
-688 195 -123 393 -181 624 -181 351 0 664 146 896 419 65 77 83 104 131 195
95 177 141 365 138 560 -3 167 -23 270 -81 418 -192 492 -699 792 -1229 730z
m284 -594 c255 -58 444 -298 442 -564 0 -36 -2 -76 -4 -90 -28 -181 -155 -352
-320 -430 -197 -95 -402 -81 -579 37 -89 59 -151 130 -199 228 -69 142 -80
291 -32 440 66 206 260 364 482 393 68 9 126 5 210 -14z"/>
<path d="M1079 3487 c-82 -31 -133 -74 -169 -144 -36 -70 -40 -117 -22 -240
52 -336 194 -706 390 -1008 55 -86 144 -209 162 -225 3 -3 21 -25 41 -50 49
-61 191 -207 260 -267 30 -26 69 -60 86 -75 103 -88 331 -237 483 -313 155
-78 420 -178 526 -199 10 -2 49 -11 85 -20 206 -48 339 -61 604 -61 242 1 430
22 615 72 30 8 62 16 71 18 104 23 328 110 483 187 260 130 458 271 677 485
l105 103 90 4 c109 4 198 31 283 86 214 139 312 372 260 617 -67 312 -369 509
-684 446 -219 -44 -399 -220 -451 -441 -19 -79 -14 -234 10 -297 8 -22 15 -47
16 -54 1 -34 -244 -239 -407 -340 -213 -132 -536 -253 -736 -277 -29 -4 -55
-8 -58 -10 -28 -16 -353 -24 -489 -11 -610 55 -1185 399 -1525 912 -161 244
-280 542 -320 805 -22 148 -73 230 -171 279 -58 29 -161 38 -215 18z"/>
</g>
</svg>
